<svg id="svg" version="1.1" xmlns="http://www.w3.org/2000/svg" xmlns:xlink="http://www.w3.org/1999/xlink" width="400" height="400" viewBox="0, 0, 400,400"><g id="svgg"><path id="path0" d="M183.606 0.268 C 181.079 0.356,178.838 0.602,178.626 0.814 C 178.414 1.026,177.121 1.200,175.753 1.200 C 174.283 1.200,173.206 1.382,173.118 1.645 C 173.027 1.918,171.934 2.075,170.285 2.050 C 168.756 2.027,167.600 2.180,167.600 2.405 C 167.600 2.625,166.446 2.800,165.000 2.800 C 163.533 2.800,162.400 2.974,162.400 3.200 C 162.400 3.422,161.333 3.600,160.000 3.600 C 158.667 3.600,157.600 3.778,157.600 4.000 C 157.600 4.220,156.801 4.400,155.824 4.400 C 154.847 4.400,153.924 4.599,153.774 4.843 C 153.583 5.151,153.396 5.121,153.156 4.743 C 152.903 4.343,152.811 4.332,152.806 4.700 C 152.802 5.040,152.077 5.200,150.533 5.200 C 149.287 5.200,148.378 5.311,148.514 5.448 C 148.997 5.930,147.639 6.800,146.405 6.800 C 145.672 6.800,145.255 6.966,145.400 7.200 C 145.547 7.438,145.071 7.600,144.224 7.600 C 143.441 7.600,142.800 7.780,142.800 8.000 C 142.800 8.220,142.260 8.400,141.600 8.400 C 140.940 8.400,140.400 8.580,140.400 8.800 C 140.400 9.020,139.860 9.200,139.200 9.200 C 138.540 9.200,138.000 9.380,138.000 9.600 C 138.000 9.820,137.460 10.000,136.800 10.000 C 136.140 10.000,135.600 10.180,135.600 10.400 C 135.600 10.620,135.060 10.800,134.400 10.800 C 133.740 10.800,133.200 10.980,133.200 11.200 C 133.200 11.420,132.660 11.600,132.000 11.600 C 131.340 11.600,130.800 11.780,130.800 12.000 C 130.800 12.220,130.350 12.400,129.800 12.400 C 129.250 12.400,128.800 12.580,128.800 12.800 C 128.800 13.020,128.528 13.200,128.195 13.200 C 127.862 13.200,127.232 13.380,126.795 13.600 C 126.358 13.820,125.642 14.180,125.205 14.400 C 124.768 14.620,124.155 14.800,123.843 14.800 C 123.531 14.800,122.584 15.143,121.738 15.563 C 117.568 17.630,114.071 18.891,113.496 18.535 C 113.251 18.384,113.195 18.469,113.362 18.738 C 113.542 19.030,113.344 19.200,112.824 19.200 C 112.371 19.200,112.000 19.380,112.000 19.600 C 112.000 19.820,111.640 20.000,111.200 20.000 C 110.760 20.000,110.399 20.135,110.397 20.300 C 110.393 20.665,108.451 21.600,107.697 21.600 C 107.398 21.600,107.264 21.780,107.400 22.000 C 107.540 22.227,107.204 22.400,106.624 22.400 C 106.061 22.400,105.599 22.535,105.597 22.700 C 105.592 23.138,103.550 24.016,103.134 23.759 C 102.939 23.639,102.830 23.768,102.890 24.047 C 102.951 24.325,102.664 24.625,102.253 24.715 C 101.734 24.827,101.600 24.724,101.814 24.377 C 102.010 24.060,101.961 23.977,101.679 24.151 C 101.435 24.302,101.336 24.690,101.460 25.013 C 101.612 25.408,101.425 25.600,100.886 25.600 C 100.446 25.600,99.974 25.890,99.838 26.245 C 99.636 26.772,99.480 26.798,98.986 26.388 C 98.653 26.112,98.265 26.002,98.124 26.143 C 97.982 26.284,98.077 26.400,98.333 26.400 C 99.325 26.400,98.737 27.150,97.539 27.413 C 96.845 27.566,95.615 28.345,94.805 29.145 C 93.996 29.945,92.853 30.855,92.267 31.168 C 91.680 31.480,91.200 31.885,91.200 32.068 C 91.200 32.250,90.975 32.401,90.700 32.402 C 90.425 32.403,88.772 33.483,87.027 34.802 C 85.281 36.121,83.751 37.200,83.627 37.201 C 83.502 37.201,82.770 37.741,82.000 38.400 C 81.230 39.059,80.463 39.599,80.296 39.599 C 80.129 39.600,79.428 40.140,78.737 40.800 C 78.046 41.460,77.238 42.000,76.941 42.000 C 76.643 42.000,76.400 42.150,76.400 42.332 C 76.400 42.515,75.905 42.920,75.300 43.232 C 74.695 43.545,73.762 44.195,73.227 44.679 C 72.692 45.162,72.107 45.466,71.927 45.355 C 71.747 45.244,71.600 45.368,71.600 45.630 C 71.600 46.889,65.235 52.252,64.208 51.858 C 63.879 51.732,63.629 51.757,63.652 51.914 C 63.787 52.819,63.127 53.627,58.377 58.377 C 53.669 63.086,52.828 63.776,51.941 63.661 C 51.799 63.643,51.773 63.976,51.885 64.403 C 52.108 65.258,47.716 70.182,46.340 70.619 C 45.927 70.750,45.692 71.025,45.818 71.229 C 45.944 71.433,45.878 71.600,45.672 71.600 C 45.466 71.600,45.073 72.140,44.800 72.800 C 44.527 73.460,44.145 74.000,43.951 74.000 C 43.758 74.000,43.600 74.236,43.600 74.525 C 43.600 74.813,43.240 75.436,42.800 75.908 C 42.360 76.380,42.000 76.927,42.000 77.124 C 42.000 77.321,41.460 78.046,40.800 78.737 C 40.140 79.428,39.600 80.129,39.599 80.296 C 39.599 80.463,39.059 81.230,38.400 82.000 C 37.741 82.770,37.201 83.502,37.201 83.627 C 37.200 83.751,36.121 85.281,34.802 87.027 C 33.483 88.772,32.403 90.425,32.402 90.700 C 32.401 90.975,32.250 91.200,32.068 91.200 C 31.885 91.200,31.480 91.680,31.168 92.267 C 30.855 92.853,29.945 93.996,29.145 94.805 C 28.345 95.615,27.566 96.845,27.413 97.539 C 27.150 98.737,26.400 99.325,26.400 98.333 C 26.400 98.077,26.284 97.982,26.143 98.124 C 26.002 98.265,26.112 98.653,26.388 98.986 C 26.798 99.480,26.772 99.636,26.245 99.838 C 25.890 99.974,25.600 100.446,25.600 100.886 C 25.600 101.425,25.408 101.612,25.013 101.460 C 24.690 101.336,24.302 101.435,24.151 101.679 C 23.977 101.961,24.060 102.010,24.377 101.814 C 24.724 101.600,24.827 101.734,24.715 102.253 C 24.625 102.664,24.325 102.951,24.047 102.890 C 23.768 102.830,23.639 102.939,23.759 103.134 C 24.016 103.550,23.138 105.592,22.700 105.597 C 22.535 105.599,22.400 106.061,22.400 106.624 C 22.400 107.204,22.227 107.540,22.000 107.400 C 21.780 107.264,21.600 107.398,21.600 107.697 C 21.600 108.451,20.665 110.393,20.300 110.397 C 20.135 110.399,20.000 110.760,20.000 111.200 C 20.000 111.640,19.820 112.000,19.600 112.000 C 19.380 112.000,19.200 112.371,19.200 112.824 C 19.200 113.344,19.030 113.542,18.738 113.362 C 18.469 113.195,18.384 113.251,18.535 113.496 C 18.678 113.726,18.532 114.658,18.212 115.566 C 17.640 117.187,17.343 117.897,15.647 121.696 C 15.181 122.738,14.800 123.776,14.800 124.001 C 14.800 124.226,14.620 124.768,14.400 125.205 C 14.180 125.642,13.820 126.358,13.600 126.795 C 13.380 127.232,13.200 127.862,13.200 128.195 C 13.200 128.528,13.020 128.800,12.800 128.800 C 12.580 128.800,12.400 129.250,12.400 129.800 C 12.400 130.350,12.220 130.800,12.000 130.800 C 11.780 130.800,11.600 131.340,11.600 132.000 C 11.600 132.660,11.420 133.200,11.200 133.200 C 10.980 133.200,10.800 133.740,10.800 134.400 C 10.800 135.060,10.620 135.600,10.400 135.600 C 10.180 135.600,10.000 136.140,10.000 136.800 C 10.000 137.460,9.820 138.000,9.600 138.000 C 9.380 138.000,9.200 138.540,9.200 139.200 C 9.200 139.860,9.020 140.400,8.800 140.400 C 8.580 140.400,8.400 140.940,8.400 141.600 C 8.400 142.260,8.220 142.800,8.000 142.800 C 7.780 142.800,7.600 143.441,7.600 144.224 C 7.600 145.071,7.438 145.547,7.200 145.400 C 6.966 145.255,6.800 145.672,6.800 146.405 C 6.800 147.639,5.930 148.997,5.448 148.514 C 5.311 148.378,5.200 149.647,5.200 151.333 C 5.200 153.111,5.032 154.400,4.800 154.400 C 4.580 154.400,4.400 155.109,4.400 155.976 C 4.400 156.843,4.220 157.664,4.000 157.800 C 3.780 157.936,3.600 159.027,3.600 160.224 C 3.600 161.421,3.420 162.400,3.200 162.400 C 2.974 162.400,2.800 163.533,2.800 165.000 C 2.800 166.446,2.625 167.600,2.405 167.600 C 2.180 167.600,2.027 168.756,2.050 170.285 C 2.075 171.934,1.918 173.027,1.645 173.118 C 1.382 173.206,1.200 174.283,1.200 175.753 C 1.200 177.209,0.993 178.447,0.700 178.740 C -0.115 179.555,-0.019 219.894,0.800 220.401 C 1.257 220.684,1.385 221.489,1.338 223.786 C 1.304 225.444,1.439 226.800,1.638 226.800 C 1.837 226.800,2.000 227.970,2.000 229.400 C 2.000 230.867,2.174 232.000,2.400 232.000 C 2.622 232.000,2.800 233.067,2.800 234.400 C 2.800 238.910,3.813 237.944,6.051 231.297 C 10.408 218.362,17.420 205.938,27.190 193.844 C 45.907 170.674,74.066 151.237,107.400 138.479 C 113.604 136.105,116.617 135.080,123.000 133.176 C 123.660 132.979,125.280 132.478,126.600 132.062 C 129.464 131.161,131.566 130.590,134.000 130.053 C 134.990 129.835,136.655 129.463,137.700 129.228 C 138.745 128.993,140.455 128.609,141.500 128.375 C 142.545 128.141,144.030 127.792,144.800 127.599 C 146.296 127.224,149.163 126.726,154.000 126.000 C 155.650 125.752,157.990 125.388,159.200 125.191 C 162.174 124.705,166.934 124.111,172.000 123.594 C 174.310 123.358,177.820 122.968,179.800 122.727 C 184.617 122.141,215.443 122.153,220.400 122.743 C 222.490 122.992,226.000 123.383,228.200 123.612 C 234.308 124.249,238.792 124.805,241.000 125.199 C 242.100 125.395,244.350 125.757,246.000 126.003 C 252.147 126.919,255.036 127.460,258.800 128.400 C 259.570 128.592,261.055 128.941,262.100 129.175 C 263.145 129.409,264.855 129.791,265.900 130.025 C 268.404 130.586,270.595 131.183,272.800 131.905 C 273.790 132.230,275.140 132.636,275.800 132.808 C 295.664 137.983,329.065 154.246,342.706 165.385 C 343.088 165.696,345.110 167.223,347.200 168.778 C 352.029 172.369,360.918 180.416,364.804 184.713 C 366.452 186.535,368.831 189.145,370.090 190.513 C 371.350 191.881,372.385 193.122,372.390 193.271 C 372.396 193.421,372.631 193.781,372.914 194.071 C 373.197 194.362,374.886 196.506,376.667 198.836 C 384.138 208.609,390.252 220.107,393.984 231.400 C 395.562 236.177,396.065 237.177,396.900 237.194 C 397.065 237.197,397.200 236.120,397.200 234.800 C 397.200 233.467,397.378 232.400,397.600 232.400 C 397.829 232.400,398.000 231.200,398.000 229.600 C 398.000 228.060,398.168 226.800,398.373 226.800 C 398.578 226.800,398.740 225.427,398.733 223.748 C 398.725 221.608,398.883 220.596,399.261 220.363 C 400.026 219.889,400.065 178.755,399.300 178.500 C 398.969 178.390,398.800 177.464,398.800 175.767 C 398.800 174.322,398.625 173.200,398.400 173.200 C 398.175 173.200,398.000 172.075,398.000 170.624 C 398.000 169.207,397.820 167.936,397.600 167.800 C 397.380 167.664,397.200 166.393,397.200 164.976 C 397.200 163.525,397.025 162.400,396.800 162.400 C 396.578 162.400,396.400 161.333,396.400 160.000 C 396.400 158.667,396.222 157.600,396.000 157.600 C 395.780 157.600,395.600 156.805,395.600 155.833 C 395.600 154.776,395.399 153.999,395.100 153.898 C 394.719 153.770,394.742 153.554,395.200 152.988 C 395.546 152.561,395.588 152.374,395.300 152.547 C 394.923 152.773,394.800 152.283,394.800 150.557 C 394.800 149.297,394.689 148.378,394.552 148.514 C 394.070 148.997,393.200 147.639,393.200 146.405 C 393.200 145.672,393.034 145.255,392.800 145.400 C 392.562 145.547,392.400 145.071,392.400 144.224 C 392.400 143.441,392.220 142.800,392.000 142.800 C 391.780 142.800,391.600 142.271,391.600 141.624 C 391.600 140.977,391.420 140.336,391.200 140.200 C 390.980 140.064,390.800 139.513,390.800 138.976 C 390.800 138.439,390.620 138.000,390.400 138.000 C 390.180 138.000,390.000 137.460,390.000 136.800 C 390.000 136.140,389.820 135.600,389.600 135.600 C 389.380 135.600,389.200 135.060,389.200 134.400 C 389.200 133.740,389.020 133.200,388.800 133.200 C 388.580 133.200,388.400 132.838,388.400 132.395 C 388.400 131.952,388.241 131.277,388.047 130.895 C 387.852 130.513,387.516 129.750,387.300 129.200 C 386.611 127.446,385.917 125.821,385.553 125.105 C 385.359 124.723,385.200 124.155,385.200 123.843 C 385.200 123.531,384.857 122.584,384.437 121.738 C 383.402 119.649,382.595 117.712,381.964 115.800 C 381.674 114.920,381.293 114.029,381.118 113.820 C 380.943 113.611,380.800 113.116,380.800 112.720 C 380.800 112.324,380.654 112.000,380.475 112.000 C 380.296 112.000,379.902 111.370,379.600 110.600 C 379.298 109.830,378.904 109.200,378.725 109.200 C 378.546 109.200,378.400 108.840,378.400 108.400 C 378.400 107.960,378.220 107.600,378.000 107.600 C 377.780 107.600,377.600 107.251,377.600 106.824 C 377.600 106.397,377.420 105.936,377.200 105.800 C 376.980 105.664,376.800 105.193,376.800 104.753 C 376.800 104.313,376.620 104.064,376.400 104.200 C 376.180 104.336,376.000 104.077,376.000 103.624 C 376.000 103.171,375.799 102.800,375.553 102.800 C 375.308 102.800,375.197 102.453,375.308 102.030 C 375.457 101.460,375.350 101.321,374.895 101.496 C 374.402 101.685,374.333 101.522,374.545 100.676 C 374.755 99.841,374.685 99.669,374.211 99.851 C 373.631 100.074,372.521 98.146,372.970 97.697 C 373.075 97.591,372.890 97.233,372.558 96.901 C 372.226 96.569,372.049 96.050,372.164 95.748 C 372.301 95.392,372.083 95.200,371.538 95.200 C 370.835 95.200,370.782 95.103,371.208 94.591 C 371.629 94.082,371.606 94.023,371.067 94.230 C 370.482 94.454,369.200 93.617,369.200 93.011 C 369.200 92.621,365.098 86.615,364.730 86.467 C 364.549 86.393,364.400 86.078,364.400 85.767 C 364.400 85.455,364.225 85.200,364.010 85.200 C 363.796 85.200,363.363 84.705,363.048 84.100 C 362.733 83.495,362.009 82.460,361.438 81.800 C 360.868 81.140,360.401 80.457,360.400 80.282 C 360.400 80.107,359.950 79.514,359.400 78.964 C 358.850 78.414,358.400 77.820,358.400 77.644 C 358.400 77.468,357.950 76.801,357.400 76.162 C 356.851 75.523,356.401 74.857,356.400 74.683 C 356.400 74.508,355.955 73.885,355.412 73.299 C 354.691 72.522,354.556 72.149,354.912 71.923 C 355.227 71.722,355.081 71.610,354.500 71.606 C 353.954 71.602,353.600 71.355,353.600 70.976 C 353.600 70.633,353.445 70.449,353.255 70.566 C 352.936 70.763,349.013 66.658,348.273 65.351 C 347.886 64.669,335.756 52.695,332.520 49.800 C 331.290 48.700,329.812 47.156,329.235 46.369 C 328.659 45.582,327.971 45.010,327.707 45.098 C 327.444 45.185,326.828 44.884,326.339 44.429 C 325.849 43.973,325.253 43.600,325.013 43.600 C 324.773 43.600,324.317 43.240,324.000 42.800 C 323.683 42.360,323.220 42.000,322.971 42.000 C 322.722 42.000,321.988 41.493,321.340 40.874 C 320.692 40.254,319.900 39.645,319.581 39.519 C 319.261 39.393,317.397 38.090,315.437 36.625 C 313.477 35.159,311.047 33.480,310.037 32.893 C 309.027 32.307,307.986 31.641,307.724 31.414 C 307.462 31.186,306.619 30.550,305.850 30.000 C 305.082 29.450,304.368 28.686,304.264 28.301 C 304.147 27.866,303.722 27.623,303.138 27.657 C 301.909 27.727,300.000 26.942,300.000 26.367 C 300.000 26.118,299.730 26.018,299.400 26.145 C 299.070 26.271,298.800 26.246,298.799 26.087 C 298.798 25.673,295.960 23.951,291.700 21.781 C 289.665 20.744,288.000 19.739,288.000 19.548 C 288.000 19.356,287.629 19.200,287.176 19.200 C 286.656 19.200,286.458 19.030,286.638 18.738 C 286.805 18.469,286.749 18.384,286.504 18.535 C 285.929 18.891,282.432 17.630,278.262 15.563 C 277.416 15.143,276.469 14.800,276.157 14.800 C 275.845 14.800,275.232 14.620,274.795 14.400 C 274.358 14.180,273.642 13.820,273.205 13.600 C 272.768 13.380,272.138 13.200,271.805 13.200 C 271.472 13.200,271.200 13.020,271.200 12.800 C 271.200 12.580,270.750 12.400,270.200 12.400 C 269.650 12.400,269.200 12.220,269.200 12.000 C 269.200 11.780,268.660 11.600,268.000 11.600 C 267.340 11.600,266.800 11.420,266.800 11.200 C 266.800 10.980,266.260 10.800,265.600 10.800 C 264.940 10.800,264.400 10.620,264.400 10.400 C 264.400 10.180,263.860 10.000,263.200 10.000 C 262.540 10.000,262.000 9.820,262.000 9.600 C 262.000 9.380,261.460 9.200,260.800 9.200 C 260.140 9.200,259.600 9.020,259.600 8.800 C 259.600 8.580,259.060 8.400,258.400 8.400 C 257.740 8.400,257.200 8.220,257.200 8.000 C 257.200 7.780,256.660 7.600,256.000 7.600 C 255.340 7.600,254.800 7.420,254.800 7.200 C 254.800 6.980,254.247 6.800,253.571 6.800 C 252.356 6.800,251.008 5.926,251.486 5.448 C 251.622 5.311,250.353 5.200,248.667 5.200 C 246.889 5.200,245.600 5.032,245.600 4.800 C 245.600 4.580,244.880 4.400,244.000 4.400 C 243.120 4.400,242.400 4.220,242.400 4.000 C 242.400 3.778,241.333 3.600,240.000 3.600 C 238.667 3.600,237.600 3.422,237.600 3.200 C 237.600 2.974,236.467 2.800,235.000 2.800 C 233.570 2.800,232.400 2.627,232.400 2.415 C 232.400 2.201,231.203 2.050,229.720 2.075 C 228.018 2.104,226.984 1.953,226.887 1.660 C 226.793 1.378,225.755 1.200,224.200 1.200 C 222.773 1.200,221.605 1.015,221.525 0.776 C 221.379 0.336,192.720 -0.048,183.606 0.268 M147.200 66.828 C 160.223 69.784,157.802 86.323,141.641 104.800 C 137.963 109.005,135.522 111.321,131.396 114.517 C 128.267 116.943,127.305 117.606,122.800 120.449 C 120.844 121.683,115.465 124.400,114.978 124.400 C 114.875 124.400,114.028 124.750,113.096 125.177 C 109.065 127.025,100.872 129.486,93.037 131.202 C 83.727 133.240,65.804 134.216,62.688 132.854 C 50.181 127.386,54.259 110.811,68.115 110.797 C 100.627 110.763,125.983 96.566,133.835 74.000 C 135.707 68.618,141.468 65.527,147.200 66.828 M260.985 67.775 C 262.881 68.703,263.476 69.292,265.101 71.851 C 280.787 96.560,300.310 108.493,328.175 110.404 C 335.374 110.898,338.026 111.497,340.070 113.090 C 347.085 118.558,346.041 128.658,338.067 132.464 L 335.438 133.718 329.071 133.456 C 318.914 133.037,309.306 131.317,299.565 128.174 C 295.547 126.877,293.762 126.148,287.600 123.289 C 279.421 119.494,267.273 110.428,260.432 103.014 C 252.679 94.612,251.469 93.125,248.495 88.340 C 244.802 82.400,244.256 81.032,244.285 77.791 C 244.364 69.073,253.023 63.880,260.985 67.775 " stroke="none" fill="#bcdbf2" fill-rule="evenodd"></path><path id="path1" d="M57.261 57.455 C 56.525 58.225,55.996 58.930,56.087 59.020 C 56.178 59.111,56.952 58.469,57.807 57.593 C 58.663 56.717,59.191 56.012,58.981 56.027 C 58.772 56.043,57.997 56.685,57.261 57.455 M342.202 57.602 C 342.602 58.044,343.011 58.322,343.112 58.221 C 343.328 58.005,342.188 56.800,341.767 56.800 C 341.607 56.800,341.803 57.161,342.202 57.602 M141.400 67.336 C 137.551 68.597,135.965 70.092,134.379 73.952 C 130.391 83.656,126.116 89.714,119.400 95.181 C 116.686 97.390,111.855 100.800,111.440 100.800 C 111.327 100.800,110.372 101.305,109.318 101.923 C 108.263 102.541,106.590 103.366,105.600 103.756 C 104.610 104.146,103.260 104.706,102.600 105.000 C 94.858 108.445,80.143 111.200,69.488 111.200 C 55.587 111.200,50.371 125.354,61.800 132.061 C 63.614 133.125,76.458 133.339,82.800 132.411 C 84.450 132.169,87.060 131.790,88.600 131.569 C 120.099 127.046,146.640 107.101,154.829 81.800 C 157.622 73.173,149.683 64.623,141.400 67.336 M252.800 67.036 C 239.614 71.969,242.918 85.029,262.200 104.200 C 275.147 117.072,289.460 125.336,306.600 129.835 C 310.373 130.825,311.521 131.059,317.400 132.032 C 318.720 132.251,323.310 132.631,327.600 132.877 L 335.400 133.324 337.603 132.312 C 344.718 129.043,346.468 120.178,341.085 114.673 C 338.480 112.008,336.527 111.455,327.400 110.795 C 320.518 110.298,318.478 110.007,313.200 108.768 C 294.612 104.405,277.849 92.251,266.904 75.200 C 263.585 70.030,262.699 69.028,260.543 68.015 C 258.724 67.160,254.049 66.569,252.800 67.036 M124.200 144.783 C 96.860 150.714,91.029 201.781,115.800 218.349 C 139.211 234.007,163.897 199.722,152.906 166.816 C 147.916 151.878,135.483 142.335,124.200 144.783 M269.200 144.676 C 235.892 150.252,237.125 218.525,270.600 222.203 C 287.822 224.095,303.884 198.678,299.593 176.320 C 299.370 175.154,299.000 173.210,298.771 172.000 C 295.573 155.053,282.020 142.530,269.200 144.676 M195.800 261.439 C 170.623 263.106,150.601 278.848,140.546 304.884 C 137.079 313.861,141.304 319.412,148.311 315.087 C 152.667 312.399,159.800 309.731,165.600 308.621 C 167.819 308.196,171.212 307.588,173.600 307.187 C 186.250 305.065,216.521 305.288,228.400 307.591 C 229.390 307.782,231.370 308.156,232.800 308.420 C 239.453 309.651,245.982 311.834,249.854 314.123 C 254.957 317.140,255.482 317.273,257.847 316.151 C 262.473 313.956,261.411 307.271,254.449 294.755 C 242.723 273.676,224.968 262.281,202.600 261.478 C 199.960 261.384,196.900 261.366,195.800 261.439 " stroke="none" fill="#654506" fill-rule="evenodd"></path><path id="path2" d="M174.000 0.800 C 174.000 1.020,174.360 1.200,174.800 1.200 C 175.240 1.200,175.600 1.020,175.600 0.800 C 175.600 0.580,175.240 0.400,174.800 0.400 C 174.360 0.400,174.000 0.580,174.000 0.800 M224.600 0.800 C 224.736 1.020,225.107 1.200,225.424 1.200 C 225.741 1.200,226.000 1.020,226.000 0.800 C 226.000 0.580,225.629 0.400,225.176 0.400 C 224.723 0.400,224.464 0.580,224.600 0.800 M168.400 1.600 C 168.400 1.820,168.670 2.000,169.000 2.000 C 169.330 2.000,169.600 1.820,169.600 1.600 C 169.600 1.380,169.330 1.200,169.000 1.200 C 168.670 1.200,168.400 1.380,168.400 1.600 M68.900 46.998 C 68.157 47.842,68.294 48.073,69.200 47.507 C 69.640 47.232,70.000 46.871,70.000 46.704 C 70.000 46.227,69.449 46.375,68.900 46.998 M352.406 68.671 C 352.418 69.284,353.155 70.178,353.426 69.907 C 353.574 69.759,353.404 69.347,353.048 68.990 C 352.691 68.634,352.403 68.491,352.406 68.671 M181.800 123.423 C 170.707 124.315,163.495 125.149,154.600 126.568 C 153.720 126.709,151.740 127.011,150.200 127.240 C 148.660 127.469,146.770 127.812,146.000 128.003 C 145.230 128.193,143.745 128.541,142.700 128.775 C 141.655 129.009,140.035 129.374,139.100 129.586 C 138.165 129.799,136.050 130.271,134.400 130.635 C 126.934 132.284,109.839 137.892,103.304 140.836 C 102.372 141.256,101.444 141.600,101.242 141.600 C 101.041 141.600,100.184 141.955,99.338 142.389 C 98.492 142.823,96.630 143.703,95.200 144.344 C 88.491 147.354,82.274 150.507,76.223 153.970 C 75.356 154.467,73.792 155.319,72.748 155.865 C 71.704 156.411,70.637 157.115,70.376 157.429 C 70.115 157.743,69.755 158.000,69.576 158.000 C 68.100 158.000,50.548 171.045,44.663 176.517 C 42.485 178.542,40.556 180.256,40.379 180.324 C 37.238 181.530,13.600 212.459,13.600 215.362 C 13.600 215.440,12.728 217.370,11.662 219.652 C 8.432 226.566,8.162 227.220,6.387 232.400 C 5.444 235.150,4.491 237.520,4.268 237.666 C 3.469 238.191,4.013 248.000,4.840 248.000 C 5.038 248.000,5.200 248.720,5.200 249.600 C 5.200 250.480,5.380 251.200,5.600 251.200 C 5.820 251.200,6.000 251.830,6.000 252.600 C 6.000 253.370,6.180 254.000,6.400 254.000 C 6.620 254.000,6.800 254.630,6.800 255.400 C 6.800 256.170,6.980 256.800,7.200 256.800 C 7.420 256.800,7.600 257.430,7.600 258.200 C 7.600 258.970,7.780 259.600,8.000 259.600 C 8.220 259.600,8.400 260.140,8.400 260.800 C 8.400 261.460,8.591 262.000,8.824 262.000 C 9.057 262.000,9.138 262.177,9.004 262.394 C 8.783 262.752,10.782 269.360,11.547 270.800 C 11.722 271.130,12.115 272.255,12.420 273.300 C 12.725 274.345,13.115 275.200,13.287 275.200 C 13.459 275.200,13.600 275.532,13.600 275.939 C 13.600 276.799,14.671 279.073,15.243 279.426 C 16.013 279.903,16.886 278.575,20.384 271.610 C 24.066 264.278,25.231 262.092,26.361 260.400 C 26.728 259.850,27.292 258.865,27.614 258.210 C 27.936 257.556,29.433 254.946,30.940 252.410 C 41.948 233.885,48.871 224.786,53.762 222.418 L 55.530 221.563 57.413 222.448 C 61.097 224.180,76.000 242.732,76.000 245.587 C 76.000 245.777,76.141 245.993,76.314 246.067 C 76.639 246.205,80.629 252.818,84.600 259.800 C 87.514 264.925,98.000 286.209,98.000 287.000 C 98.000 287.097,98.434 288.127,98.964 289.288 C 108.773 310.768,113.386 331.739,110.868 343.400 C 108.726 353.318,101.908 367.182,97.588 370.400 C 95.316 372.093,95.946 372.749,103.497 376.549 C 103.990 376.797,104.395 377.135,104.397 377.300 C 104.399 377.465,104.760 377.600,105.200 377.600 C 105.640 377.600,106.000 377.780,106.000 378.000 C 106.000 378.220,106.360 378.400,106.800 378.400 C 107.240 378.400,107.600 378.580,107.600 378.800 C 107.600 379.020,107.960 379.200,108.400 379.200 C 108.840 379.200,109.200 379.380,109.200 379.600 C 109.200 379.820,109.560 380.000,110.000 380.000 C 110.440 380.000,110.800 380.180,110.800 380.400 C 110.800 380.620,111.160 380.800,111.600 380.800 C 112.040 380.800,112.400 380.980,112.400 381.200 C 112.400 381.420,112.670 381.600,113.000 381.600 C 113.330 381.600,113.600 381.780,113.600 382.000 C 113.600 382.220,113.872 382.400,114.205 382.400 C 114.538 382.400,115.168 382.580,115.605 382.800 C 116.042 383.020,116.758 383.380,117.195 383.600 C 117.632 383.820,118.262 384.000,118.595 384.000 C 118.928 384.000,119.200 384.180,119.200 384.400 C 119.200 384.620,119.560 384.800,120.000 384.800 C 120.440 384.800,120.800 384.941,120.800 385.113 C 120.800 385.285,121.629 385.670,122.642 385.969 C 123.655 386.268,125.176 386.848,126.022 387.256 C 126.869 387.665,127.752 388.000,127.986 388.000 C 128.220 388.000,128.723 388.177,129.105 388.392 C 130.356 389.099,138.388 391.600,139.406 391.600 C 139.953 391.600,140.400 391.780,140.400 392.000 C 140.400 392.220,141.030 392.400,141.800 392.400 C 142.570 392.400,143.200 392.580,143.200 392.800 C 143.200 393.020,143.729 393.200,144.376 393.200 C 145.023 393.200,145.664 393.380,145.800 393.600 C 145.936 393.820,146.656 394.000,147.400 394.000 C 148.144 394.000,148.864 394.180,149.000 394.400 C 149.136 394.620,149.867 394.800,150.624 394.800 C 151.381 394.800,152.000 394.962,152.000 395.160 C 152.000 395.498,152.581 395.616,157.300 396.232 C 158.345 396.369,159.200 396.642,159.200 396.840 C 159.200 397.038,160.179 397.200,161.376 397.200 C 162.573 397.200,163.664 397.380,163.800 397.600 C 163.936 397.820,165.016 398.000,166.200 398.000 C 167.384 398.000,168.464 398.180,168.600 398.400 C 168.736 398.620,169.992 398.800,171.390 398.800 C 173.069 398.800,173.990 398.970,174.100 399.300 C 174.231 399.693,179.712 399.800,199.713 399.800 C 219.537 399.800,225.270 399.690,225.660 399.300 C 225.953 399.007,227.193 398.800,228.656 398.800 C 230.029 398.800,231.264 398.620,231.400 398.400 C 231.536 398.180,232.717 398.000,234.024 398.000 C 235.341 398.000,236.400 397.822,236.400 397.600 C 236.400 397.380,237.289 397.200,238.376 397.200 C 239.463 397.200,240.464 397.020,240.600 396.800 C 240.736 396.580,241.636 396.400,242.600 396.400 C 243.564 396.400,244.464 396.220,244.600 396.000 C 244.736 395.780,245.557 395.600,246.424 395.600 C 247.291 395.600,248.000 395.420,248.000 395.200 C 248.000 394.980,248.720 394.800,249.600 394.800 C 250.480 394.800,251.200 394.620,251.200 394.400 C 251.200 394.180,251.819 394.000,252.576 394.000 C 253.333 394.000,254.064 393.820,254.200 393.600 C 254.336 393.380,254.977 393.200,255.624 393.200 C 256.271 393.200,256.800 393.020,256.800 392.800 C 256.800 392.580,257.430 392.400,258.200 392.400 C 258.970 392.400,259.600 392.220,259.600 392.000 C 259.600 391.780,260.047 391.600,260.594 391.600 C 261.612 391.600,269.644 389.099,270.895 388.392 C 271.277 388.177,271.780 388.000,272.014 388.000 C 272.248 388.000,273.131 387.665,273.978 387.256 C 274.824 386.848,276.345 386.268,277.358 385.969 C 278.371 385.670,279.200 385.285,279.200 385.113 C 279.200 384.941,279.560 384.800,280.000 384.800 C 280.440 384.800,280.800 384.620,280.800 384.400 C 280.800 384.180,281.155 384.000,281.588 384.000 C 282.021 384.000,283.017 383.640,283.800 383.200 C 284.583 382.760,285.489 382.400,285.812 382.400 C 286.135 382.400,286.401 382.265,286.401 382.100 C 286.402 381.935,287.392 381.350,288.600 380.800 C 289.808 380.250,290.798 379.665,290.799 379.500 C 290.799 379.335,291.160 379.200,291.600 379.200 C 292.040 379.200,292.400 379.020,292.400 378.800 C 292.400 378.580,292.760 378.400,293.200 378.400 C 293.640 378.400,294.000 378.220,294.000 378.000 C 294.000 377.780,294.360 377.600,294.800 377.600 C 295.240 377.600,295.600 377.420,295.600 377.200 C 295.600 376.980,295.960 376.800,296.400 376.800 C 296.840 376.800,297.200 376.651,297.200 376.468 C 297.200 376.286,298.415 375.530,299.900 374.790 C 301.385 374.049,302.660 373.298,302.733 373.121 C 302.807 372.945,303.009 372.800,303.183 372.800 C 303.744 372.800,309.600 369.144,309.600 368.793 C 309.600 368.607,309.966 368.338,310.413 368.196 C 310.860 368.054,311.662 367.502,312.195 366.969 C 312.728 366.436,313.402 366.000,313.694 366.000 C 313.985 366.000,314.483 365.640,314.800 365.200 C 315.117 364.760,315.625 364.400,315.928 364.400 C 316.231 364.400,316.983 363.860,317.600 363.200 C 318.217 362.540,318.920 362.000,319.164 362.000 C 319.408 362.000,320.172 361.460,320.863 360.800 C 321.554 360.140,322.347 359.600,322.626 359.600 C 322.905 359.600,323.193 359.462,323.267 359.293 C 323.340 359.124,324.300 358.269,325.400 357.393 C 326.500 356.517,327.877 355.305,328.460 354.700 C 329.044 354.095,329.701 353.600,329.920 353.600 C 330.139 353.600,331.197 352.745,332.271 351.700 C 333.344 350.655,335.208 348.990,336.411 348.000 C 341.534 343.788,343.788 341.534,348.000 336.411 C 348.990 335.208,350.655 333.344,351.700 332.271 C 352.745 331.197,353.600 330.139,353.600 329.920 C 353.600 329.701,354.095 329.044,354.700 328.460 C 355.305 327.877,356.517 326.500,357.393 325.400 C 358.269 324.300,359.124 323.340,359.293 323.267 C 359.462 323.193,359.600 322.905,359.600 322.626 C 359.600 322.347,360.140 321.554,360.800 320.863 C 361.460 320.172,362.000 319.408,362.000 319.164 C 362.000 318.920,362.540 318.217,363.200 317.600 C 363.860 316.983,364.400 316.231,364.400 315.928 C 364.400 315.625,364.760 315.117,365.200 314.800 C 365.640 314.483,366.000 313.985,366.000 313.694 C 366.000 313.402,366.436 312.728,366.969 312.195 C 367.502 311.662,368.054 310.860,368.196 310.413 C 368.338 309.966,368.607 309.600,368.793 309.600 C 369.144 309.600,372.800 303.744,372.800 303.183 C 372.800 303.009,372.945 302.807,373.121 302.733 C 373.298 302.660,374.049 301.385,374.790 299.900 C 375.530 298.415,376.286 297.200,376.468 297.200 C 376.651 297.200,376.800 296.840,376.800 296.400 C 376.800 295.960,376.980 295.600,377.200 295.600 C 377.420 295.600,377.600 295.240,377.600 294.800 C 377.600 294.360,377.780 294.000,378.000 294.000 C 378.220 294.000,378.400 293.640,378.400 293.200 C 378.400 292.760,378.580 292.400,378.800 292.400 C 379.020 292.400,379.200 292.040,379.200 291.600 C 379.200 291.160,379.335 290.799,379.500 290.799 C 379.665 290.798,380.250 289.808,380.800 288.600 C 381.350 287.392,381.935 286.402,382.100 286.401 C 382.265 286.401,382.400 286.135,382.400 285.812 C 382.400 285.489,382.760 284.583,383.200 283.800 C 383.640 283.017,384.000 282.021,384.000 281.588 C 384.000 281.155,384.180 280.800,384.400 280.800 C 384.620 280.800,384.800 280.440,384.800 280.000 C 384.800 279.560,384.941 279.200,385.113 279.200 C 385.285 279.200,385.670 278.371,385.969 277.358 C 386.268 276.345,386.848 274.824,387.256 273.978 C 387.665 273.131,388.000 272.248,388.000 272.014 C 388.000 271.780,388.177 271.277,388.392 270.895 C 389.099 269.644,391.600 261.612,391.600 260.594 C 391.600 260.047,391.780 259.600,392.000 259.600 C 392.220 259.600,392.400 258.970,392.400 258.200 C 392.400 257.430,392.580 256.800,392.800 256.800 C 393.020 256.800,393.200 256.271,393.200 255.624 C 393.200 254.977,393.380 254.336,393.600 254.200 C 393.820 254.064,394.000 253.333,394.000 252.576 C 394.000 251.819,394.180 251.200,394.400 251.200 C 394.620 251.200,394.800 250.480,394.800 249.600 C 394.800 248.720,394.980 248.000,395.200 248.000 C 395.420 248.000,395.600 247.291,395.600 246.424 C 395.600 245.557,395.804 244.721,396.053 244.567 C 396.594 244.233,396.277 238.028,395.699 237.645 C 395.496 237.510,395.224 237.040,395.094 236.600 C 391.439 224.178,383.697 209.224,375.004 197.800 C 371.032 192.579,362.043 182.321,360.102 180.794 C 359.531 180.345,357.242 178.288,355.015 176.223 C 349.036 170.679,334.443 159.935,327.771 156.164 C 319.870 151.700,314.994 149.085,311.400 147.385 C 305.470 144.579,299.749 141.980,297.700 141.160 C 297.205 140.962,296.395 140.636,295.900 140.435 C 289.855 137.985,283.177 135.639,276.600 133.655 C 269.551 131.528,266.656 130.779,259.200 129.153 C 258.210 128.938,256.680 128.588,255.800 128.376 C 252.865 127.669,244.733 126.371,235.800 125.183 C 218.998 122.949,196.722 122.223,181.800 123.423 M133.719 145.380 C 156.778 152.503,163.326 194.822,144.400 214.407 C 122.321 237.254,92.808 206.843,101.701 170.410 C 106.163 152.133,120.159 141.192,133.719 145.380 M276.503 144.987 C 286.790 147.167,296.250 158.642,298.771 172.000 C 299.000 173.210,299.370 175.154,299.593 176.320 C 300.913 183.199,299.449 195.007,296.340 202.546 C 285.935 227.778,260.428 228.885,249.028 204.600 C 235.936 176.711,252.866 139.978,276.503 144.987 M1.200 169.000 C 1.200 169.330,1.380 169.600,1.600 169.600 C 1.820 169.600,2.000 169.330,2.000 169.000 C 2.000 168.670,1.820 168.400,1.600 168.400 C 1.380 168.400,1.200 168.670,1.200 169.000 M0.400 174.800 C 0.400 175.240,0.580 175.600,0.800 175.600 C 1.020 175.600,1.200 175.240,1.200 174.800 C 1.200 174.360,1.020 174.000,0.800 174.000 C 0.580 174.000,0.400 174.360,0.400 174.800 M398.806 174.300 C 398.824 175.177,399.588 175.759,399.594 174.900 C 399.597 174.405,399.420 174.000,399.200 174.000 C 398.980 174.000,398.803 174.135,398.806 174.300 M0.400 225.000 C 0.400 225.550,0.580 226.000,0.800 226.000 C 1.020 226.000,1.200 225.550,1.200 225.000 C 1.200 224.450,1.020 224.000,0.800 224.000 C 0.580 224.000,0.400 224.450,0.400 225.000 M398.800 225.024 C 398.800 225.604,398.973 225.940,399.200 225.800 C 399.420 225.664,399.600 225.203,399.600 224.776 C 399.600 224.349,399.420 224.000,399.200 224.000 C 398.980 224.000,398.800 224.461,398.800 225.024 M2.000 235.800 C 2.000 236.130,2.180 236.400,2.400 236.400 C 2.620 236.400,2.800 236.130,2.800 235.800 C 2.800 235.470,2.620 235.200,2.400 235.200 C 2.180 235.200,2.000 235.470,2.000 235.800 M209.800 262.041 C 217.224 263.248,221.719 264.661,227.371 267.565 C 242.349 275.260,255.459 291.563,260.404 308.643 C 261.485 312.376,260.653 314.819,257.847 316.151 C 255.482 317.273,254.957 317.140,249.854 314.123 C 245.982 311.834,239.453 309.651,232.800 308.420 C 231.370 308.156,229.390 307.782,228.400 307.591 C 216.521 305.288,186.250 305.065,173.600 307.187 C 171.212 307.588,167.819 308.196,165.600 308.621 C 159.800 309.731,152.667 312.399,148.311 315.087 C 141.304 319.412,137.079 313.861,140.546 304.884 C 152.472 274.006,179.718 257.150,209.800 262.041 " stroke="none" fill="#fbcb4c" fill-rule="evenodd"></path><path id="path3" d="M52.400 224.142 C 49.733 226.101,43.909 232.934,40.759 237.800 C 33.164 249.530,26.189 261.647,20.871 272.350 C 18.586 276.950,17.077 279.519,16.409 279.945 C 14.667 281.058,13.600 282.596,13.600 283.995 C 13.600 284.438,13.420 284.800,13.200 284.800 C 12.980 284.800,12.800 285.160,12.800 285.600 C 12.800 286.040,12.620 286.400,12.400 286.400 C 12.180 286.400,12.000 286.749,12.000 287.176 C 12.000 287.603,11.820 288.064,11.600 288.200 C 11.380 288.336,11.200 288.887,11.200 289.424 C 11.200 289.961,11.041 290.400,10.847 290.400 C 10.652 290.400,10.392 290.805,10.268 291.300 C 9.901 292.765,8.121 297.613,7.850 297.884 C 7.712 298.021,7.600 298.643,7.600 299.267 C 7.600 299.890,7.420 300.400,7.200 300.400 C 6.980 300.400,6.800 300.749,6.800 301.176 C 6.800 301.603,6.620 302.064,6.400 302.200 C 6.180 302.336,6.000 302.887,6.000 303.424 C 6.000 303.961,5.820 304.400,5.600 304.400 C 5.380 304.400,5.200 304.940,5.200 305.600 C 5.200 306.260,5.020 306.800,4.800 306.800 C 4.580 306.800,4.400 307.340,4.400 308.000 C 4.400 308.660,4.220 309.200,4.000 309.200 C 3.780 309.200,3.600 309.830,3.600 310.600 C 3.600 311.370,3.420 312.000,3.200 312.000 C 2.980 312.000,2.800 312.540,2.800 313.200 C 2.800 313.860,2.620 314.400,2.400 314.400 C 2.180 314.400,2.000 315.019,2.000 315.776 C 2.000 316.533,1.820 317.264,1.600 317.400 C 1.380 317.536,1.200 318.342,1.200 319.190 C 1.200 320.069,0.985 320.805,0.700 320.900 C -0.028 321.142,-0.028 346.857,0.700 347.100 C 0.987 347.195,1.200 347.936,1.200 348.833 C 1.200 349.695,1.380 350.400,1.600 350.400 C 1.820 350.400,2.000 350.940,2.000 351.600 C 2.000 352.260,2.180 352.800,2.400 352.800 C 2.620 352.800,2.800 353.239,2.800 353.776 C 2.800 354.313,2.980 354.864,3.200 355.000 C 3.420 355.136,3.600 355.597,3.600 356.024 C 3.600 356.451,3.780 356.800,4.000 356.800 C 4.220 356.800,4.400 357.160,4.400 357.600 C 4.400 358.040,4.580 358.400,4.800 358.400 C 5.020 358.400,5.200 358.670,5.200 359.000 C 5.200 359.330,5.380 359.600,5.600 359.600 C 5.820 359.600,6.000 359.960,6.000 360.400 C 6.000 360.840,6.180 361.200,6.400 361.200 C 6.620 361.200,6.800 361.520,6.800 361.912 C 6.800 362.303,7.160 362.883,7.600 363.200 C 8.040 363.517,8.400 363.999,8.400 364.271 C 8.400 364.985,10.690 368.399,12.963 371.074 C 15.690 374.284,21.041 379.200,21.806 379.200 C 22.133 379.200,22.400 379.350,22.400 379.532 C 22.400 379.715,22.895 380.119,23.500 380.430 C 24.105 380.740,24.891 381.311,25.247 381.697 C 25.603 382.084,26.188 382.400,26.547 382.400 C 26.906 382.400,27.200 382.580,27.200 382.800 C 27.200 383.020,27.560 383.200,28.000 383.200 C 28.440 383.200,28.800 383.380,28.800 383.600 C 28.800 383.820,29.250 384.000,29.800 384.000 C 30.350 384.000,30.800 384.180,30.800 384.400 C 30.800 384.620,31.160 384.800,31.600 384.800 C 32.040 384.800,32.400 384.980,32.400 385.200 C 32.400 385.420,32.760 385.600,33.200 385.600 C 33.640 385.600,34.000 385.780,34.000 386.000 C 34.000 386.220,34.540 386.400,35.200 386.400 C 35.860 386.400,36.400 386.580,36.400 386.800 C 36.400 387.020,36.940 387.200,37.600 387.200 C 38.260 387.200,38.800 387.380,38.800 387.600 C 38.800 387.820,39.304 388.000,39.920 388.000 C 40.536 388.000,41.211 388.162,41.420 388.359 C 42.003 388.910,51.873 390.088,55.600 390.052 C 59.320 390.015,65.029 389.539,65.800 389.201 C 66.240 389.008,67.275 388.748,68.100 388.625 C 71.457 388.122,72.418 387.895,72.627 387.556 C 72.748 387.360,73.276 387.200,73.800 387.200 C 74.324 387.200,74.864 387.020,75.000 386.800 C 75.136 386.580,75.676 386.400,76.200 386.400 C 76.724 386.400,77.264 386.220,77.400 386.000 C 77.536 385.780,77.997 385.600,78.424 385.600 C 78.851 385.600,79.200 385.420,79.200 385.200 C 79.200 384.980,79.560 384.800,80.000 384.800 C 80.440 384.800,80.800 384.620,80.800 384.400 C 80.800 384.180,81.160 384.000,81.600 384.000 C 82.040 384.000,82.400 383.820,82.400 383.600 C 82.400 383.380,82.760 383.200,83.200 383.200 C 83.640 383.200,84.000 383.020,84.000 382.800 C 84.000 382.580,84.236 382.400,84.525 382.400 C 84.813 382.400,85.398 382.085,85.825 381.700 C 86.251 381.315,87.095 380.745,87.700 380.432 C 88.305 380.120,88.800 379.715,88.800 379.532 C 88.800 379.350,89.081 379.200,89.424 379.200 C 89.767 379.200,89.936 379.020,89.800 378.800 C 89.664 378.580,89.748 378.400,89.987 378.400 C 90.226 378.400,91.190 377.635,92.130 376.700 C 93.070 375.765,94.414 374.550,95.116 374.000 C 96.036 373.280,96.394 372.669,96.396 371.817 C 96.399 371.021,96.844 370.169,97.754 369.217 C 102.601 364.143,107.511 354.201,109.688 345.055 C 112.492 333.272,108.991 313.768,100.756 295.304 C 100.340 294.372,100.000 293.459,100.000 293.275 C 100.000 293.092,99.460 291.827,98.800 290.465 C 98.140 289.102,97.600 287.898,97.600 287.789 C 97.600 285.749,85.839 263.296,77.282 249.000 C 63.660 226.242,57.677 220.265,52.400 224.142 " stroke="none" fill="#5caceb" fill-rule="evenodd"></path><path id="path4" d="M183.100 0.293 C 184.035 0.377,185.565 0.377,186.500 0.293 C 187.435 0.209,186.670 0.140,184.800 0.140 C 182.930 0.140,182.165 0.209,183.100 0.293 M213.500 0.293 C 214.435 0.377,215.965 0.377,216.900 0.293 C 217.835 0.209,217.070 0.140,215.200 0.140 C 213.330 0.140,212.565 0.209,213.500 0.293 M175.600 0.800 C 175.600 1.020,176.219 1.200,176.976 1.200 C 177.733 1.200,178.464 1.020,178.600 0.800 C 178.749 0.558,178.204 0.400,177.224 0.400 C 176.331 0.400,175.600 0.580,175.600 0.800 M221.600 0.800 C 221.600 1.020,222.331 1.200,223.224 1.200 C 224.204 1.200,224.749 1.042,224.600 0.800 C 224.464 0.580,223.733 0.400,222.976 0.400 C 222.219 0.400,221.600 0.580,221.600 0.800 M169.600 1.571 C 169.600 2.047,170.699 2.264,172.100 2.065 C 173.864 1.815,173.367 1.200,171.400 1.200 C 170.410 1.200,169.600 1.367,169.600 1.571 M226.800 1.555 C 226.800 1.966,229.162 2.385,229.900 2.104 C 230.999 1.687,230.299 1.200,228.600 1.200 C 227.610 1.200,226.800 1.360,226.800 1.555 M164.600 2.400 C 164.451 2.642,164.996 2.800,165.976 2.800 C 166.869 2.800,167.600 2.620,167.600 2.400 C 167.600 2.180,166.981 2.000,166.224 2.000 C 165.467 2.000,164.736 2.180,164.600 2.400 M232.400 2.400 C 232.400 2.620,233.131 2.800,234.024 2.800 C 235.004 2.800,235.549 2.642,235.400 2.400 C 235.264 2.180,234.533 2.000,233.776 2.000 C 233.019 2.000,232.400 2.180,232.400 2.400 M159.200 3.200 C 159.200 3.420,159.920 3.600,160.800 3.600 C 161.680 3.600,162.400 3.420,162.400 3.200 C 162.400 2.980,161.680 2.800,160.800 2.800 C 159.920 2.800,159.200 2.980,159.200 3.200 M237.600 3.200 C 237.600 3.420,238.320 3.600,239.200 3.600 C 240.080 3.600,240.800 3.420,240.800 3.200 C 240.800 2.980,240.080 2.800,239.200 2.800 C 238.320 2.800,237.600 2.980,237.600 3.200 M155.369 4.050 C 155.250 4.242,155.703 4.400,156.376 4.400 C 157.049 4.400,157.600 4.242,157.600 4.050 C 157.600 3.858,157.147 3.700,156.593 3.700 C 156.039 3.700,155.488 3.858,155.369 4.050 M242.400 4.000 C 242.400 4.220,242.951 4.400,243.624 4.400 C 244.337 4.400,244.744 4.233,244.600 4.000 C 244.464 3.780,243.913 3.600,243.376 3.600 C 242.839 3.600,242.400 3.780,242.400 4.000 M245.600 4.800 C 245.600 5.020,246.140 5.200,246.800 5.200 C 247.460 5.200,248.000 5.020,248.000 4.800 C 248.000 4.580,247.460 4.400,246.800 4.400 C 246.140 4.400,245.600 4.580,245.600 4.800 M145.800 6.400 C 145.656 6.633,146.063 6.800,146.776 6.800 C 147.449 6.800,148.000 6.620,148.000 6.400 C 148.000 6.180,147.561 6.000,147.024 6.000 C 146.487 6.000,145.936 6.180,145.800 6.400 M252.000 6.400 C 252.000 6.620,252.551 6.800,253.224 6.800 C 253.937 6.800,254.344 6.633,254.200 6.400 C 254.064 6.180,253.513 6.000,252.976 6.000 C 252.439 6.000,252.000 6.180,252.000 6.400 M143.400 7.200 C 143.255 7.434,143.670 7.600,144.400 7.600 C 145.130 7.600,145.545 7.434,145.400 7.200 C 145.264 6.980,144.814 6.800,144.400 6.800 C 143.986 6.800,143.536 6.980,143.400 7.200 M254.800 7.200 C 254.800 7.420,255.261 7.600,255.824 7.600 C 256.404 7.600,256.740 7.427,256.600 7.200 C 256.464 6.980,256.003 6.800,255.576 6.800 C 255.149 6.800,254.800 6.980,254.800 7.200 M140.600 8.000 C 140.464 8.220,139.934 8.400,139.422 8.400 C 138.910 8.400,137.976 8.669,137.346 8.998 C 136.716 9.326,135.930 9.599,135.600 9.604 C 134.856 9.614,132.113 10.554,131.741 10.926 C 131.590 11.077,131.128 11.200,130.714 11.200 C 130.300 11.200,129.216 11.560,128.306 12.000 C 127.395 12.440,126.419 12.800,126.137 12.800 C 125.855 12.800,124.983 13.160,124.200 13.600 C 123.417 14.040,122.432 14.400,122.011 14.400 C 121.591 14.400,121.136 14.580,121.000 14.800 C 120.864 15.020,120.403 15.200,119.976 15.200 C 119.549 15.200,119.199 15.335,119.197 15.500 C 119.193 15.844,117.269 16.800,116.582 16.800 C 115.820 16.800,113.600 18.031,113.600 18.453 C 113.600 18.670,113.437 18.747,113.238 18.623 C 112.860 18.390,109.499 19.978,109.267 20.500 C 109.193 20.665,108.788 20.800,108.367 20.800 C 107.945 20.800,107.600 20.980,107.600 21.200 C 107.600 21.420,107.744 21.600,107.920 21.600 C 108.500 21.600,110.394 20.606,110.397 20.300 C 110.399 20.135,110.745 20.000,111.167 20.000 C 111.588 20.000,111.993 19.865,112.067 19.700 C 112.140 19.535,113.190 19.057,114.400 18.639 C 116.850 17.791,119.422 16.713,121.738 15.563 C 122.584 15.144,123.531 14.800,123.843 14.800 C 124.155 14.800,124.813 14.592,125.305 14.338 C 127.182 13.367,127.607 13.200,128.195 13.200 C 128.528 13.200,128.800 13.020,128.800 12.800 C 128.800 12.580,129.250 12.400,129.800 12.400 C 130.350 12.400,130.800 12.220,130.800 12.000 C 130.800 11.780,131.340 11.600,132.000 11.600 C 132.660 11.600,133.200 11.420,133.200 11.200 C 133.200 10.980,133.740 10.800,134.400 10.800 C 135.060 10.800,135.600 10.620,135.600 10.400 C 135.600 10.180,136.140 10.000,136.800 10.000 C 137.460 10.000,138.000 9.820,138.000 9.600 C 138.000 9.380,138.540 9.200,139.200 9.200 C 139.860 9.200,140.400 9.020,140.400 8.800 C 140.400 8.580,140.940 8.400,141.600 8.400 C 142.260 8.400,142.800 8.220,142.800 8.000 C 142.800 7.780,142.361 7.600,141.824 7.600 C 141.287 7.600,140.736 7.780,140.600 8.000 M257.200 8.000 C 257.200 8.220,257.740 8.400,258.400 8.400 C 259.060 8.400,259.600 8.580,259.600 8.800 C 259.600 9.020,260.140 9.200,260.800 9.200 C 261.460 9.200,262.000 9.380,262.000 9.600 C 262.000 9.820,262.540 10.000,263.200 10.000 C 263.860 10.000,264.400 10.180,264.400 10.400 C 264.400 10.620,264.940 10.800,265.600 10.800 C 266.260 10.800,266.800 10.980,266.800 11.200 C 266.800 11.420,267.340 11.600,268.000 11.600 C 268.660 11.600,269.200 11.780,269.200 12.000 C 269.200 12.220,269.650 12.400,270.200 12.400 C 270.750 12.400,271.200 12.580,271.200 12.800 C 271.200 13.020,271.472 13.200,271.805 13.200 C 272.393 13.200,272.818 13.367,274.695 14.338 C 275.187 14.592,275.845 14.800,276.157 14.800 C 276.469 14.800,277.416 15.144,278.262 15.563 C 280.581 16.715,283.152 17.792,285.600 18.638 C 286.810 19.056,288.028 19.614,288.307 19.878 C 288.587 20.142,290.297 21.099,292.107 22.006 C 295.899 23.903,298.798 25.672,298.799 26.087 C 298.800 26.246,299.070 26.271,299.400 26.145 C 299.730 26.018,300.000 26.113,300.000 26.356 C 300.000 26.897,302.412 27.947,303.090 27.700 C 303.743 27.463,302.712 26.400,301.829 26.400 C 301.483 26.400,301.200 26.220,301.200 26.000 C 301.200 25.780,300.840 25.600,300.400 25.600 C 299.960 25.600,299.600 25.420,299.600 25.200 C 299.600 24.980,299.280 24.800,298.888 24.800 C 298.497 24.800,297.917 24.440,297.600 24.000 C 297.283 23.560,296.703 23.200,296.312 23.200 C 295.920 23.200,295.600 23.020,295.600 22.800 C 295.600 22.580,295.240 22.400,294.800 22.400 C 294.360 22.400,294.000 22.220,294.000 22.000 C 294.000 21.780,293.640 21.600,293.200 21.600 C 292.760 21.600,292.400 21.420,292.400 21.200 C 292.400 20.980,292.055 20.800,291.633 20.800 C 291.212 20.800,290.807 20.665,290.733 20.500 C 290.516 20.011,287.152 18.382,286.804 18.598 C 286.628 18.706,286.381 18.526,286.254 18.198 C 286.128 17.869,285.670 17.600,285.236 17.600 C 284.802 17.600,284.336 17.420,284.200 17.200 C 284.064 16.980,283.603 16.800,283.176 16.800 C 282.749 16.800,282.400 16.620,282.400 16.400 C 282.400 16.180,282.135 16.000,281.812 16.000 C 281.489 16.000,280.634 15.675,279.912 15.278 C 279.190 14.880,277.430 14.146,276.000 13.646 C 274.570 13.146,272.680 12.422,271.800 12.038 C 270.920 11.653,268.580 10.844,266.600 10.240 C 264.620 9.636,262.687 8.974,262.305 8.771 C 261.923 8.567,261.158 8.400,260.605 8.400 C 260.052 8.400,259.600 8.220,259.600 8.000 C 259.600 7.780,259.060 7.600,258.400 7.600 C 257.740 7.600,257.200 7.780,257.200 8.000 M106.000 22.000 C 106.000 22.220,106.371 22.400,106.824 22.400 C 107.277 22.400,107.536 22.220,107.400 22.000 C 107.264 21.780,106.893 21.600,106.576 21.600 C 106.259 21.600,106.000 21.780,106.000 22.000 M104.400 22.800 C 104.400 23.020,104.029 23.200,103.576 23.200 C 103.123 23.200,102.845 23.350,102.958 23.532 C 103.071 23.715,102.542 24.109,101.782 24.407 C 101.022 24.705,100.400 25.096,100.400 25.275 C 100.400 25.684,101.487 25.705,101.667 25.300 C 101.834 24.924,103.964 23.625,104.900 23.329 C 105.756 23.057,105.827 22.400,105.000 22.400 C 104.670 22.400,104.400 22.580,104.400 22.800 M98.877 26.030 C 98.956 26.267,99.191 26.460,99.400 26.460 C 99.609 26.460,99.844 26.267,99.923 26.030 C 100.002 25.794,99.767 25.600,99.400 25.600 C 99.033 25.600,98.798 25.794,98.877 26.030 M96.884 27.015 C 96.323 27.652,96.522 27.717,97.900 27.348 C 98.395 27.215,98.800 26.948,98.800 26.753 C 98.800 26.190,97.450 26.374,96.884 27.015 M94.695 28.321 C 94.093 28.686,93.600 29.134,93.600 29.316 C 93.600 29.498,93.420 29.536,93.200 29.400 C 92.980 29.264,92.800 29.331,92.800 29.549 C 92.800 29.768,92.462 30.053,92.049 30.184 C 91.636 30.316,90.781 30.867,90.149 31.411 C 89.517 31.954,88.815 32.399,88.588 32.400 C 88.362 32.400,87.917 32.760,87.600 33.200 C 87.283 33.640,86.820 34.000,86.571 34.000 C 86.322 34.000,85.554 34.540,84.863 35.200 C 84.172 35.860,83.375 36.400,83.092 36.400 C 82.809 36.400,82.317 36.760,82.000 37.200 C 81.683 37.640,81.220 38.000,80.971 38.000 C 80.722 38.000,79.954 38.540,79.263 39.200 C 78.572 39.860,77.859 40.400,77.678 40.400 C 77.498 40.400,76.832 40.940,76.200 41.600 C 75.568 42.260,74.859 42.803,74.625 42.806 C 73.970 42.816,71.523 45.105,71.911 45.345 C 72.100 45.462,72.692 45.162,73.227 44.679 C 73.762 44.195,74.695 43.545,75.300 43.232 C 75.905 42.920,76.400 42.515,76.400 42.332 C 76.400 42.150,76.643 42.000,76.941 42.000 C 77.238 42.000,78.046 41.460,78.737 40.800 C 79.428 40.140,80.129 39.600,80.296 39.599 C 80.463 39.599,81.230 39.059,82.000 38.400 C 82.770 37.741,83.502 37.201,83.627 37.201 C 83.751 37.200,85.281 36.121,87.027 34.802 C 88.772 33.483,90.425 32.403,90.700 32.402 C 90.975 32.401,91.200 32.250,91.200 32.068 C 91.200 31.885,91.666 31.486,92.236 31.181 C 93.417 30.549,96.175 28.041,95.943 27.810 C 95.859 27.725,95.297 27.956,94.695 28.321 M304.411 28.500 C 304.417 28.775,305.058 29.450,305.835 30.000 C 306.612 30.550,307.462 31.186,307.724 31.414 C 307.986 31.641,309.027 32.307,310.037 32.893 C 311.047 33.480,313.477 35.159,315.437 36.625 C 317.397 38.090,319.261 39.393,319.581 39.519 C 319.900 39.645,320.692 40.254,321.340 40.874 C 321.988 41.493,322.696 42.000,322.912 42.000 C 323.129 42.000,323.597 42.316,323.953 42.703 C 324.309 43.089,325.095 43.660,325.700 43.970 C 326.305 44.281,326.800 44.685,326.800 44.868 C 326.800 45.050,327.064 45.200,327.387 45.200 C 328.451 45.200,327.622 44.210,325.204 42.593 C 323.894 41.717,322.817 40.865,322.811 40.700 C 322.805 40.535,322.618 40.400,322.396 40.400 C 322.174 40.400,321.428 39.860,320.737 39.200 C 320.046 38.540,319.278 38.000,319.029 38.000 C 318.780 38.000,318.317 37.640,318.000 37.200 C 317.683 36.760,317.175 36.400,316.872 36.400 C 316.569 36.400,315.817 35.860,315.200 35.200 C 314.583 34.540,313.831 34.000,313.528 34.000 C 313.225 34.000,312.717 33.640,312.400 33.200 C 312.083 32.760,311.569 32.400,311.259 32.400 C 310.948 32.400,310.403 32.079,310.047 31.686 C 308.476 29.952,304.392 27.643,304.411 28.500 M70.400 46.328 C 70.070 46.723,69.183 47.475,68.429 48.001 C 64.454 50.770,47.200 68.201,47.200 69.448 C 47.200 69.715,46.975 70.024,46.700 70.135 C 46.414 70.250,46.387 70.350,46.637 70.368 C 47.296 70.416,52.000 65.366,52.000 64.611 C 52.000 64.215,52.184 64.067,52.462 64.238 C 52.748 64.415,52.815 64.348,52.638 64.062 C 52.481 63.808,52.533 63.600,52.754 63.600 C 52.974 63.600,55.505 61.250,58.377 58.377 C 61.250 55.505,63.600 52.974,63.600 52.754 C 63.600 52.533,63.808 52.481,64.062 52.638 C 64.331 52.805,64.416 52.749,64.265 52.504 C 64.122 52.274,64.429 51.979,64.948 51.849 C 65.842 51.624,71.600 46.452,71.600 45.873 C 71.600 45.376,71.009 45.600,70.400 46.328 M332.000 49.238 C 337.372 54.297,347.936 64.756,348.272 65.349 C 349.064 66.747,352.947 70.756,353.298 70.539 C 353.511 70.408,353.531 70.188,353.343 70.050 C 353.154 69.913,352.580 69.202,352.066 68.470 C 349.286 64.513,332.172 47.635,330.568 47.271 C 330.256 47.200,330.000 46.975,330.000 46.771 C 330.000 46.567,329.775 46.403,329.500 46.407 C 329.225 46.410,330.350 47.685,332.000 49.238 M140.633 67.205 C 139.552 67.628,138.472 68.169,138.233 68.408 C 137.995 68.647,138.700 68.431,139.800 67.929 C 148.668 63.882,157.878 72.382,154.829 81.800 C 147.677 103.896,128.676 120.417,100.400 129.123 L 99.000 129.555 100.600 129.320 C 102.400 129.057,110.504 126.372,113.096 125.180 C 114.028 124.751,114.875 124.400,114.978 124.400 C 115.465 124.400,120.844 121.683,122.800 120.449 C 127.305 117.606,128.267 116.943,131.396 114.517 C 138.359 109.122,144.998 101.758,148.993 95.000 C 155.942 83.246,157.372 77.194,154.380 72.199 C 151.484 67.365,145.651 65.246,140.633 67.205 M252.717 66.704 C 252.342 66.867,253.512 67.012,255.317 67.026 C 260.892 67.069,262.341 68.092,266.904 75.200 C 274.044 86.324,282.626 94.468,294.713 101.590 C 296.315 102.534,297.718 103.216,297.829 103.104 C 297.941 102.992,297.080 102.407,295.916 101.804 C 290.823 99.165,281.497 92.289,278.200 88.741 C 273.429 83.608,268.662 77.460,265.101 71.851 C 262.428 67.641,256.365 65.120,252.717 66.704 M249.530 68.102 C 242.854 72.180,242.519 78.728,248.495 88.340 C 251.469 93.125,252.679 94.612,260.432 103.014 C 267.273 110.428,279.421 119.494,287.600 123.289 C 293.754 126.145,295.528 126.871,299.400 128.118 C 304.780 129.852,310.422 131.311,310.694 131.040 C 310.804 130.929,310.378 130.719,309.747 130.573 C 284.666 124.753,261.830 108.745,248.632 87.733 C 243.032 78.816,243.626 71.346,250.183 68.235 C 251.528 67.596,251.960 67.198,251.300 67.202 C 251.135 67.203,250.339 67.608,249.530 68.102 M135.939 70.346 C 135.193 71.217,134.245 72.891,133.831 74.065 C 133.417 75.239,132.644 77.073,132.112 78.140 C 131.581 79.207,131.236 80.169,131.345 80.279 C 131.559 80.493,132.359 78.819,134.393 73.900 C 135.111 72.164,136.126 70.445,136.699 69.994 C 137.262 69.551,137.626 69.093,137.509 68.975 C 137.391 68.858,136.685 69.475,135.939 70.346 M43.991 72.883 C 43.446 73.561,42.885 74.405,42.744 74.758 C 42.603 75.111,42.018 75.836,41.444 76.370 C 40.870 76.903,40.400 77.490,40.400 77.673 C 40.400 77.857,39.860 78.572,39.200 79.263 C 38.540 79.954,38.000 80.722,38.000 80.971 C 38.000 81.220,37.640 81.683,37.200 82.000 C 36.760 82.317,36.400 82.809,36.400 83.092 C 36.400 83.375,35.860 84.172,35.200 84.863 C 34.540 85.554,34.000 86.322,34.000 86.571 C 34.000 86.820,33.640 87.283,33.200 87.600 C 32.760 87.917,32.400 88.362,32.400 88.588 C 32.399 88.815,31.954 89.517,31.411 90.149 C 30.867 90.781,30.316 91.636,30.184 92.049 C 30.053 92.462,29.768 92.800,29.549 92.800 C 29.331 92.800,29.264 92.980,29.400 93.200 C 29.536 93.420,29.495 93.600,29.310 93.600 C 29.124 93.600,28.654 94.140,28.264 94.800 C 27.874 95.460,27.667 96.000,27.804 96.000 C 28.210 96.000,30.580 93.358,31.181 92.236 C 31.486 91.666,31.885 91.200,32.068 91.200 C 32.250 91.200,32.401 90.975,32.402 90.700 C 32.403 90.425,33.483 88.772,34.802 87.027 C 36.121 85.281,37.200 83.751,37.201 83.627 C 37.201 83.502,37.741 82.770,38.400 82.000 C 39.059 81.230,39.599 80.463,39.599 80.296 C 39.600 80.129,40.140 79.428,40.800 78.737 C 41.460 78.046,42.000 77.321,42.000 77.124 C 42.000 76.927,42.360 76.380,42.800 75.908 C 43.240 75.436,43.600 74.813,43.600 74.525 C 43.600 74.236,43.751 74.000,43.936 74.000 C 44.279 74.000,45.331 71.998,45.106 71.773 C 45.038 71.704,44.536 72.204,43.991 72.883 M355.081 72.987 C 355.477 73.531,355.935 73.981,356.100 73.987 C 356.265 73.994,356.400 74.225,356.400 74.500 C 356.401 74.775,356.851 75.523,357.400 76.162 C 357.950 76.801,358.400 77.468,358.400 77.644 C 358.400 77.820,358.850 78.414,359.400 78.964 C 359.950 79.514,360.400 80.107,360.400 80.282 C 360.401 80.457,360.868 81.140,361.438 81.800 C 362.009 82.460,362.733 83.495,363.048 84.100 C 363.363 84.705,363.796 85.200,364.010 85.200 C 364.225 85.200,364.400 85.455,364.400 85.767 C 364.400 86.078,364.549 86.393,364.730 86.467 C 365.098 86.615,369.200 92.621,369.200 93.011 C 369.200 93.427,370.316 94.400,370.795 94.400 C 371.044 94.400,371.136 94.580,371.000 94.800 C 370.864 95.020,371.055 95.200,371.425 95.200 C 372.073 95.200,371.862 94.662,370.800 93.600 C 370.690 93.490,370.253 92.770,369.828 92.000 C 369.404 91.230,368.729 90.309,368.328 89.953 C 367.928 89.597,367.600 89.052,367.600 88.741 C 367.600 88.431,367.240 87.917,366.800 87.600 C 366.360 87.283,366.000 86.820,366.000 86.571 C 366.000 86.322,365.460 85.554,364.800 84.863 C 364.140 84.172,363.600 83.375,363.600 83.092 C 363.600 82.809,363.240 82.317,362.800 82.000 C 362.360 81.683,362.000 81.175,362.000 80.872 C 362.000 80.569,361.460 79.817,360.800 79.200 C 360.140 78.583,359.597 77.926,359.594 77.740 C 359.590 77.553,359.050 76.791,358.394 76.046 C 357.737 75.301,357.200 74.579,357.200 74.442 C 357.200 74.015,355.190 72.000,354.765 72.000 C 354.544 72.000,354.686 72.444,355.081 72.987 M128.316 84.697 C 124.958 89.718,123.013 91.884,119.327 94.709 C 112.618 99.851,109.048 101.951,102.466 104.629 C 100.120 105.584,98.417 106.373,98.681 106.382 C 99.140 106.399,99.898 106.127,102.600 104.977 C 103.260 104.696,104.610 104.146,105.600 103.756 C 106.590 103.366,108.263 102.541,109.318 101.923 C 110.372 101.305,111.327 100.800,111.440 100.800 C 112.471 100.800,121.290 93.869,124.225 90.751 C 126.288 88.559,131.405 81.271,131.096 80.963 C 131.003 80.870,129.752 82.550,128.316 84.697 M372.000 95.917 C 372.000 96.151,372.261 96.604,372.581 96.924 C 372.900 97.243,373.075 97.591,372.970 97.697 C 372.864 97.803,372.958 98.364,373.179 98.945 C 373.612 100.084,374.400 100.378,374.400 99.400 C 374.400 99.070,374.220 98.800,374.000 98.800 C 373.780 98.800,373.600 98.513,373.600 98.163 C 373.600 97.813,373.240 97.069,372.800 96.509 C 372.360 95.950,372.000 95.684,372.000 95.917 M26.900 97.023 C 26.323 97.649,26.231 98.800,26.757 98.800 C 27.094 98.800,27.774 96.833,27.519 96.593 C 27.454 96.531,27.175 96.725,26.900 97.023 M25.600 99.400 C 25.600 99.767,25.794 100.002,26.030 99.923 C 26.267 99.844,26.460 99.609,26.460 99.400 C 26.460 99.191,26.267 98.956,26.030 98.877 C 25.794 98.798,25.600 99.033,25.600 99.400 M24.407 101.782 C 24.109 102.542,23.715 103.071,23.532 102.958 C 23.350 102.845,23.200 103.123,23.200 103.576 C 23.200 104.029,23.020 104.400,22.800 104.400 C 22.580 104.400,22.400 104.670,22.400 105.000 C 22.400 105.827,23.057 105.756,23.329 104.900 C 23.625 103.964,24.924 101.834,25.300 101.667 C 25.705 101.487,25.684 100.400,25.275 100.400 C 25.096 100.400,24.705 101.022,24.407 101.782 M374.400 101.000 C 374.400 101.330,374.580 101.600,374.800 101.600 C 375.020 101.600,375.200 101.870,375.200 102.200 C 375.200 102.530,375.367 102.800,375.572 102.800 C 375.777 102.800,376.015 103.205,376.102 103.700 C 376.237 104.470,376.303 104.502,376.564 103.921 C 376.768 103.469,376.591 102.942,376.035 102.345 C 375.576 101.852,375.200 101.213,375.200 100.925 C 375.200 100.636,375.020 100.400,374.800 100.400 C 374.580 100.400,374.400 100.670,374.400 101.000 M298.600 103.600 C 298.736 103.820,299.011 104.000,299.212 104.000 C 299.412 104.000,300.529 104.436,301.694 104.969 C 308.739 108.191,316.872 110.034,327.400 110.795 C 336.527 111.455,338.480 112.008,341.085 114.673 C 346.120 119.822,344.677 129.269,338.457 131.882 C 337.718 132.193,337.215 132.548,337.339 132.672 C 339.035 134.368,344.800 126.455,344.800 122.431 C 344.800 114.578,340.168 111.227,328.175 110.404 C 316.744 109.620,309.413 107.955,301.050 104.243 C 298.425 103.078,298.249 103.031,298.600 103.600 M376.800 104.976 C 376.800 105.293,376.980 105.664,377.200 105.800 C 377.420 105.936,377.600 106.397,377.600 106.824 C 377.600 107.251,377.780 107.600,378.000 107.600 C 378.220 107.600,378.400 107.960,378.400 108.400 C 378.400 108.840,378.546 109.200,378.725 109.200 C 378.904 109.200,379.298 109.830,379.600 110.600 C 379.902 111.370,380.296 112.000,380.475 112.000 C 380.654 112.000,380.800 112.324,380.800 112.720 C 380.800 113.116,380.943 113.611,381.118 113.820 C 381.293 114.029,381.674 114.920,381.964 115.800 C 382.595 117.712,383.402 119.649,384.437 121.738 C 384.857 122.584,385.200 123.531,385.200 123.843 C 385.200 124.155,385.359 124.723,385.553 125.105 C 385.748 125.487,386.084 126.250,386.300 126.800 C 386.989 128.554,387.683 130.179,388.047 130.895 C 388.241 131.277,388.400 131.952,388.400 132.395 C 388.400 132.838,388.580 133.200,388.800 133.200 C 389.020 133.200,389.200 133.740,389.200 134.400 C 389.200 135.060,389.380 135.600,389.600 135.600 C 389.820 135.600,390.000 136.140,390.000 136.800 C 390.000 137.460,390.180 138.000,390.400 138.000 C 390.620 138.000,390.800 138.439,390.800 138.976 C 390.800 139.513,390.980 140.064,391.200 140.200 C 391.420 140.336,391.600 140.977,391.600 141.624 C 391.600 142.271,391.780 142.800,392.000 142.800 C 392.220 142.800,392.400 142.260,392.400 141.600 C 392.400 140.940,392.243 140.400,392.052 140.400 C 391.860 140.400,391.585 139.507,391.440 138.416 C 391.295 137.325,391.002 136.325,390.788 136.193 C 390.575 136.061,390.400 135.549,390.400 135.056 C 390.400 134.563,390.252 133.989,390.072 133.780 C 389.892 133.571,389.313 132.050,388.786 130.400 C 388.259 128.750,387.728 127.310,387.606 127.200 C 387.484 127.090,386.951 125.740,386.421 124.200 C 385.890 122.660,385.129 120.810,384.728 120.088 C 384.328 119.366,384.000 118.511,384.000 118.188 C 384.000 117.865,383.820 117.600,383.600 117.600 C 383.380 117.600,383.201 117.285,383.203 116.900 C 383.207 116.125,379.986 109.478,379.504 109.267 C 379.337 109.193,379.200 108.788,379.200 108.367 C 379.200 107.945,379.020 107.600,378.800 107.600 C 378.580 107.600,378.400 107.240,378.400 106.800 C 378.400 106.360,378.220 106.000,378.000 106.000 C 377.780 106.000,377.600 105.640,377.600 105.200 C 377.600 104.760,377.420 104.400,377.200 104.400 C 376.980 104.400,376.800 104.659,376.800 104.976 M21.600 106.576 C 21.600 106.893,21.780 107.264,22.000 107.400 C 22.220 107.536,22.400 107.277,22.400 106.824 C 22.400 106.371,22.220 106.000,22.000 106.000 C 21.780 106.000,21.600 106.259,21.600 106.576 M95.734 106.982 C 94.467 107.533,88.674 108.749,83.400 109.572 C 79.399 110.196,71.950 110.793,68.115 110.797 C 57.932 110.807,52.278 119.542,56.923 128.086 C 58.010 130.084,62.054 133.280,62.690 132.644 C 62.811 132.522,62.471 132.255,61.933 132.051 C 56.546 130.003,54.205 122.016,57.395 116.572 C 59.563 112.873,63.328 111.200,69.488 111.200 C 78.038 111.200,98.000 107.971,98.000 106.588 C 98.000 106.251,97.026 106.420,95.734 106.982 M20.800 108.367 C 20.800 108.788,20.665 109.193,20.500 109.267 C 19.978 109.499,18.390 112.860,18.623 113.238 C 18.747 113.437,18.670 113.600,18.453 113.600 C 18.031 113.600,16.800 115.820,16.800 116.582 C 16.800 117.269,15.844 119.193,15.500 119.197 C 15.335 119.199,15.200 119.549,15.200 119.976 C 15.200 120.403,15.020 120.864,14.800 121.000 C 14.580 121.136,14.400 121.591,14.400 122.011 C 14.400 122.432,14.040 123.417,13.600 124.200 C 13.160 124.983,12.800 125.855,12.800 126.137 C 12.800 126.419,12.440 127.395,12.000 128.306 C 11.560 129.216,11.200 130.300,11.200 130.714 C 11.200 131.128,11.077 131.590,10.926 131.741 C 10.554 132.113,9.614 134.856,9.604 135.600 C 9.599 135.930,9.326 136.716,8.998 137.346 C 8.669 137.976,8.400 138.910,8.400 139.422 C 8.400 139.934,8.220 140.464,8.000 140.600 C 7.780 140.736,7.600 141.287,7.600 141.824 C 7.600 142.361,7.780 142.800,8.000 142.800 C 8.220 142.800,8.400 142.260,8.400 141.600 C 8.400 140.940,8.580 140.400,8.800 140.400 C 9.020 140.400,9.200 139.860,9.200 139.200 C 9.200 138.540,9.380 138.000,9.600 138.000 C 9.820 138.000,10.000 137.460,10.000 136.800 C 10.000 136.140,10.180 135.600,10.400 135.600 C 10.620 135.600,10.800 135.060,10.800 134.400 C 10.800 133.740,10.980 133.200,11.200 133.200 C 11.420 133.200,11.600 132.660,11.600 132.000 C 11.600 131.340,11.780 130.800,12.000 130.800 C 12.220 130.800,12.400 130.350,12.400 129.800 C 12.400 129.250,12.580 128.800,12.800 128.800 C 13.020 128.800,13.200 128.528,13.200 128.195 C 13.200 127.862,13.380 127.232,13.600 126.795 C 13.820 126.358,14.180 125.642,14.400 125.205 C 14.620 124.768,14.800 124.226,14.800 124.001 C 14.800 123.776,15.160 122.783,15.600 121.796 C 17.361 117.843,17.910 116.508,18.639 114.400 C 19.057 113.190,19.535 112.140,19.700 112.067 C 19.865 111.993,20.000 111.588,20.000 111.167 C 20.000 110.745,20.135 110.399,20.300 110.397 C 20.606 110.394,21.600 108.500,21.600 107.920 C 21.600 107.744,21.420 107.600,21.200 107.600 C 20.980 107.600,20.800 107.945,20.800 108.367 M187.400 122.413 C 183.220 122.581,178.045 122.916,175.900 123.159 C 173.755 123.402,170.335 123.776,168.300 123.990 C 166.265 124.205,163.430 124.559,162.000 124.778 C 157.690 125.437,153.935 126.005,151.400 126.382 C 148.162 126.863,146.467 127.175,144.800 127.596 C 144.030 127.790,142.545 128.141,141.500 128.375 C 140.455 128.609,138.745 128.993,137.700 129.228 C 136.655 129.463,134.990 129.835,134.000 130.053 C 131.566 130.590,129.464 131.161,126.600 132.062 C 125.280 132.478,123.660 132.979,123.000 133.176 C 97.403 140.814,75.608 151.792,54.123 167.866 C 42.532 176.538,32.354 186.870,22.790 199.673 C 15.353 209.628,9.846 220.032,6.051 231.297 C 4.274 236.573,4.164 236.800,3.376 236.800 C 2.951 236.800,2.800 237.325,2.800 238.800 C 2.800 241.147,3.443 241.457,3.840 239.300 C 3.991 238.475,4.241 237.710,4.394 237.600 C 4.548 237.490,5.444 235.150,6.387 232.400 C 8.162 227.220,8.432 226.566,11.662 219.652 C 12.728 217.370,13.600 215.440,13.600 215.362 C 13.600 212.459,37.238 181.530,40.379 180.324 C 40.556 180.256,42.485 178.542,44.663 176.517 C 50.548 171.045,68.100 158.000,69.576 158.000 C 69.755 158.000,70.115 157.743,70.376 157.429 C 70.637 157.115,71.704 156.411,72.748 155.865 C 73.792 155.319,75.356 154.467,76.223 153.970 C 82.274 150.507,88.491 147.354,95.200 144.344 C 96.630 143.703,98.492 142.823,99.338 142.389 C 100.184 141.955,101.041 141.600,101.242 141.600 C 101.444 141.600,102.372 141.256,103.304 140.836 C 109.839 137.892,126.934 132.284,134.400 130.635 C 136.050 130.271,138.210 129.786,139.200 129.558 C 140.190 129.330,141.810 128.965,142.800 128.747 C 143.790 128.528,145.230 128.193,146.000 128.003 C 146.770 127.812,148.660 127.469,150.200 127.240 C 151.740 127.011,153.720 126.709,154.600 126.568 C 184.504 121.797,211.529 121.616,241.600 125.986 C 248.855 127.041,253.505 127.823,255.800 128.376 C 256.680 128.588,258.210 128.938,259.200 129.153 C 266.656 130.779,269.551 131.528,276.600 133.655 C 283.271 135.668,287.412 137.118,295.800 140.382 C 298.770 141.537,304.043 143.904,311.400 147.385 C 314.994 149.085,319.870 151.700,327.771 156.164 C 334.443 159.935,349.036 170.679,355.015 176.223 C 357.242 178.288,359.531 180.345,360.102 180.794 C 372.032 190.178,391.455 221.221,395.082 236.700 C 395.198 237.195,395.429 237.600,395.596 237.600 C 395.762 237.600,396.014 238.328,396.157 239.219 C 396.476 241.215,397.200 240.926,397.200 238.803 C 397.200 237.660,397.010 237.194,396.477 237.025 C 395.963 236.861,395.253 235.269,394.013 231.498 C 391.403 223.562,387.642 215.526,383.158 208.307 C 380.379 203.835,374.602 195.806,372.914 194.071 C 372.631 193.781,372.396 193.421,372.390 193.271 C 372.385 193.122,371.350 191.881,370.090 190.513 C 368.831 189.145,366.452 186.535,364.804 184.713 C 360.918 180.416,352.029 172.369,347.200 168.778 C 345.110 167.223,343.088 165.696,342.706 165.385 C 329.065 154.246,295.664 137.983,275.800 132.808 C 275.140 132.636,273.790 132.230,272.800 131.905 C 270.589 131.181,268.369 130.576,266.000 130.053 C 262.790 129.345,260.230 128.757,258.800 128.400 C 255.036 127.460,252.147 126.919,246.000 126.003 C 244.350 125.757,242.100 125.395,241.000 125.199 C 238.792 124.805,234.308 124.249,228.200 123.612 C 226.000 123.383,222.580 123.024,220.600 122.815 C 215.540 122.280,196.452 122.049,187.400 122.413 M95.474 130.225 C 94.414 130.514,93.334 130.846,93.074 130.962 C 92.229 131.339,95.593 130.718,97.322 130.178 C 99.492 129.500,97.992 129.538,95.474 130.225 M88.400 131.600 C 87.001 132.048,89.239 132.048,91.000 131.600 L 92.200 131.295 90.800 131.287 C 90.030 131.283,88.950 131.424,88.400 131.600 M312.600 131.600 C 313.260 131.768,314.250 131.909,314.800 131.913 L 315.800 131.920 314.800 131.600 C 314.250 131.424,313.260 131.283,312.600 131.287 L 311.400 131.295 312.600 131.600 M82.600 132.400 C 80.870 132.840,82.757 132.855,85.200 132.420 L 87.000 132.100 85.400 132.097 C 84.520 132.096,83.260 132.232,82.600 132.400 M317.800 132.423 C 319.937 132.865,321.404 132.850,320.000 132.400 C 319.450 132.224,318.370 132.083,317.600 132.086 L 316.200 132.092 317.800 132.423 M63.746 133.294 C 64.300 133.652,71.553 133.610,77.000 133.217 C 80.076 132.995,78.956 132.937,72.146 132.964 C 67.276 132.984,63.496 133.132,63.746 133.294 M324.800 133.220 C 329.321 133.620,335.688 133.660,336.252 133.294 C 336.501 133.132,333.261 132.982,329.052 132.960 C 323.109 132.929,322.159 132.987,324.800 133.220 M7.019 143.700 C 6.852 144.085,6.852 144.715,7.019 145.100 C 7.403 145.981,7.774 144.881,7.491 143.700 C 7.332 143.033,7.309 143.033,7.019 143.700 M392.400 144.400 C 392.400 145.130,392.566 145.545,392.800 145.400 C 393.020 145.264,393.200 144.814,393.200 144.400 C 393.200 143.986,393.020 143.536,392.800 143.400 C 392.566 143.255,392.400 143.670,392.400 144.400 M6.267 145.867 C 5.848 146.285,5.955 148.000,6.400 148.000 C 6.620 148.000,6.800 147.460,6.800 146.800 C 6.800 145.557,6.719 145.415,6.267 145.867 M393.200 146.776 C 393.200 147.449,393.380 148.000,393.600 148.000 C 393.820 148.000,394.000 147.561,394.000 147.024 C 394.000 146.487,393.820 145.936,393.600 145.800 C 393.367 145.656,393.200 146.063,393.200 146.776 M4.400 153.200 C 4.400 153.860,4.580 154.400,4.800 154.400 C 5.020 154.400,5.200 153.860,5.200 153.200 C 5.200 152.540,5.020 152.000,4.800 152.000 C 4.580 152.000,4.400 152.540,4.400 153.200 M394.900 153.000 C 394.900 153.550,395.055 154.000,395.246 154.000 C 395.436 154.000,395.554 153.550,395.508 153.000 C 395.463 152.450,395.307 152.000,395.163 152.000 C 395.018 152.000,394.900 152.450,394.900 153.000 M3.900 155.428 C 3.735 155.596,3.600 156.279,3.600 156.947 C 3.600 157.814,3.723 158.037,4.031 157.729 C 4.268 157.492,4.403 156.808,4.331 156.210 C 4.259 155.612,4.065 155.261,3.900 155.428 M395.600 156.376 C 395.600 157.049,395.780 157.600,396.000 157.600 C 396.220 157.600,396.400 157.161,396.400 156.624 C 396.400 156.087,396.220 155.536,396.000 155.400 C 395.767 155.256,395.600 155.663,395.600 156.376 M2.800 160.800 C 2.800 161.680,2.980 162.400,3.200 162.400 C 3.420 162.400,3.600 161.680,3.600 160.800 C 3.600 159.920,3.420 159.200,3.200 159.200 C 2.980 159.200,2.800 159.920,2.800 160.800 M396.400 160.800 C 396.400 161.680,396.580 162.400,396.800 162.400 C 397.020 162.400,397.200 161.680,397.200 160.800 C 397.200 159.920,397.020 159.200,396.800 159.200 C 396.580 159.200,396.400 159.920,396.400 160.800 M2.267 164.667 C 1.843 165.090,1.957 167.600,2.400 167.600 C 2.620 167.600,2.800 166.880,2.800 166.000 C 2.800 164.365,2.734 164.200,2.267 164.667 M397.200 165.953 C 397.200 166.833,397.380 167.664,397.600 167.800 C 397.841 167.949,398.000 167.412,398.000 166.447 C 398.000 165.567,397.820 164.736,397.600 164.600 C 397.359 164.451,397.200 164.988,397.200 165.953 M1.200 171.400 C 1.200 173.367,1.815 173.864,2.065 172.100 C 2.264 170.699,2.047 169.600,1.571 169.600 C 1.367 169.600,1.200 170.410,1.200 171.400 M398.000 171.400 C 398.000 172.390,398.180 173.200,398.400 173.200 C 398.620 173.200,398.800 172.390,398.800 171.400 C 398.800 170.410,398.620 169.600,398.400 169.600 C 398.180 169.600,398.000 170.410,398.000 171.400 M398.806 176.500 C 398.803 177.545,398.980 178.400,399.200 178.400 C 399.711 178.400,399.711 175.991,399.200 175.200 C 398.920 174.766,398.811 175.126,398.806 176.500 M0.400 177.224 C 0.400 178.204,0.558 178.749,0.800 178.600 C 1.020 178.464,1.200 177.733,1.200 176.976 C 1.200 176.219,1.020 175.600,0.800 175.600 C 0.580 175.600,0.400 176.331,0.400 177.224 M0.140 184.800 C 0.140 186.670,0.209 187.435,0.293 186.500 C 0.377 185.565,0.377 184.035,0.293 183.100 C 0.209 182.165,0.140 182.930,0.140 184.800 M399.740 184.800 C 399.740 186.670,399.809 187.435,399.893 186.500 C 399.977 185.565,399.977 184.035,399.893 183.100 C 399.809 182.165,399.740 182.930,399.740 184.800 M0.134 214.400 C 0.134 216.050,0.205 216.725,0.291 215.900 C 0.378 215.075,0.378 213.725,0.291 212.900 C 0.205 212.075,0.134 212.750,0.134 214.400 M399.734 214.400 C 399.734 216.050,399.805 216.725,399.891 215.900 C 399.978 215.075,399.978 213.725,399.891 212.900 C 399.805 212.075,399.734 212.750,399.734 214.400 M0.400 222.157 C 0.400 223.350,0.593 223.988,1.000 224.145 C 1.665 224.400,1.762 223.710,1.350 221.650 C 0.983 219.816,0.400 220.127,0.400 222.157 M398.800 221.567 C 398.800 222.209,398.691 223.019,398.557 223.367 C 398.398 223.782,398.535 224.000,398.957 224.000 C 399.452 224.000,399.600 223.587,399.600 222.200 C 399.600 221.210,399.420 220.400,399.200 220.400 C 398.980 220.400,398.800 220.925,398.800 221.567 M53.684 222.450 C 48.817 224.859,41.883 233.993,30.940 252.410 C 29.433 254.946,27.936 257.556,27.614 258.210 C 27.292 258.865,26.728 259.850,26.361 260.400 C 25.230 262.094,24.065 264.280,20.362 271.654 C 18.400 275.562,16.401 279.034,15.921 279.370 C 14.850 280.121,15.211 280.636,16.372 280.015 C 16.883 279.742,18.645 276.703,20.856 272.282 C 34.764 244.479,49.886 222.875,55.553 222.714 C 58.548 222.629,65.451 229.891,71.603 239.600 C 74.470 244.124,81.200 255.239,81.200 255.449 C 81.200 255.541,81.635 256.306,82.168 257.149 C 85.707 262.755,98.400 287.987,98.400 289.416 C 98.400 289.522,98.778 290.462,99.240 291.504 C 99.702 292.547,100.242 293.805,100.440 294.300 C 100.638 294.795,100.963 295.605,101.163 296.100 C 111.871 322.629,113.377 338.811,106.626 354.800 C 104.303 360.302,101.363 365.080,97.702 369.301 C 96.986 370.127,96.405 371.117,96.412 371.501 C 96.423 372.110,96.483 372.097,96.878 371.400 C 97.127 370.960,97.450 370.510,97.594 370.400 C 101.966 367.069,108.726 353.318,110.868 343.400 C 113.386 331.739,108.773 310.768,98.964 289.288 C 98.434 288.127,98.000 287.097,98.000 287.000 C 98.000 286.209,87.514 264.925,84.600 259.800 C 80.629 252.818,76.639 246.205,76.314 246.067 C 76.141 245.993,76.000 245.777,76.000 245.587 C 76.000 242.753,61.101 224.182,57.453 222.467 C 55.243 221.428,55.744 221.431,53.684 222.450 M1.200 228.600 C 1.200 229.590,1.380 230.400,1.600 230.400 C 1.820 230.400,2.000 229.590,2.000 228.600 C 2.000 227.610,1.820 226.800,1.600 226.800 C 1.380 226.800,1.200 227.610,1.200 228.600 M398.000 228.600 C 398.000 229.590,398.180 230.400,398.400 230.400 C 398.620 230.400,398.800 229.590,398.800 228.600 C 398.800 227.610,398.620 226.800,398.400 226.800 C 398.180 226.800,398.000 227.610,398.000 228.600 M2.000 233.600 C 2.000 234.480,2.180 235.200,2.400 235.200 C 2.620 235.200,2.800 234.480,2.800 233.600 C 2.800 232.720,2.620 232.000,2.400 232.000 C 2.180 232.000,2.000 232.720,2.000 233.600 M397.200 234.000 C 397.200 234.880,397.380 235.600,397.600 235.600 C 397.820 235.600,398.000 234.880,398.000 234.000 C 398.000 233.120,397.820 232.400,397.600 232.400 C 397.380 232.400,397.200 233.120,397.200 234.000 " stroke="none" fill="#dacd8b" fill-rule="evenodd"></path></g></svg>